<svg xmlns="http://www.w3.org/2000/svg" width="150" height="150" viewBox="0 0 150 150" fill="none">
<g clip-path="url(#clip0_2_400)">
<path d="M61.7884 49.1999C62.7461 49.1961 63.704 49.1922 64.6908 49.1883C66.7114 49.1856 68.732 49.1929 70.7525 49.2097C73.8454 49.2312 76.936 49.2099 80.029 49.1843C81.9942 49.1869 83.9593 49.192 85.9237 49.1999C86.8484 49.1918 87.7724 49.1837 88.725 49.1753C95.85 49.2797 95.85 49.2797 98.3035 51.7211C98.7758 52.3884 99.2473 53.0557 99.734 53.7433C100.129 54.1404 100.129 54.1404 100.532 54.5454C100.619 55.8244 100.651 57.1072 100.66 58.3891C100.668 59.2086 100.676 60.0281 100.684 60.8724C100.687 61.7655 100.691 62.6587 100.694 63.5789C100.699 64.4921 100.703 65.4054 100.707 66.3464C100.715 68.2851 100.72 70.2238 100.723 72.1625C100.731 75.1238 100.756 78.0846 100.781 81.0457C100.786 82.9275 100.79 84.8085 100.794 86.6904C100.803 87.5759 100.814 88.4607 100.824 89.3727C100.801 97.3869 100.801 97.3869 98.1383 101.07C95.6505 102.659 93.6846 102.879 90.766 102.894C89.9322 102.902 89.0992 102.91 88.2399 102.918C87.3439 102.917 86.4479 102.916 85.5247 102.915C84.6008 102.918 83.6761 102.922 82.7234 102.926C80.7678 102.93 78.8131 102.93 76.8582 102.927C73.8673 102.924 70.877 102.943 67.8862 102.963C65.9865 102.966 64.0869 102.966 62.1873 102.965C61.293 102.972 60.3985 102.98 59.4771 102.987C58.6411 102.983 57.805 102.978 56.9437 102.972C56.2109 102.973 55.4781 102.974 54.7232 102.974C52.2016 102.607 50.7223 101.767 48.6702 100.267C46.9035 97.6035 46.8616 96.7123 46.8173 93.6016C46.802 92.7313 46.7867 91.861 46.7709 90.965C46.7641 90.0249 46.7573 89.0848 46.7504 88.1166C46.7412 87.15 46.7321 86.1834 46.7228 85.188C46.7077 83.1425 46.6972 81.0962 46.6911 79.0506C46.6756 75.92 46.6261 72.791 46.5758 69.6607C46.5654 67.6742 46.557 65.6876 46.5509 63.7011C46.5312 62.7643 46.5115 61.8276 46.4911 60.8624C46.5132 56.8364 46.5483 54.4992 48.8804 51.1489C52.7171 48.7168 57.4173 49.1615 61.7884 49.1999Z" fill="#B0488C"/>
<path d="M2.39362 8.02136C31.883 8.02136 61.3723 8.02136 91.7553 8.02136C91.7553 13.8449 91.7553 19.6684 91.7553 25.6684C67.5319 25.6684 43.3085 25.6684 18.3511 25.6684C18.3511 37.0508 18.3511 48.4331 18.3511 60.1604C13.0851 60.1604 7.81915 60.1604 2.39362 60.1604C2.39362 42.9545 2.39362 25.7486 2.39362 8.02136Z" fill="#B0488C"/>
<path d="M2.39362 93.0481C7.65957 93.0481 12.9255 93.0481 18.3511 93.0481C18.3511 104.166 18.3511 115.283 18.3511 126.738C44.6809 126.738 71.0106 126.738 98.1383 126.738C98.1383 132.032 98.1383 137.326 98.1383 142.781C66.5426 142.781 34.9468 142.781 2.39362 142.781C2.39362 126.369 2.39362 109.957 2.39362 93.0481Z" fill="#B0488C"/>
<path d="M141.23 5.01335C145.261 8.10191 147.787 11.9628 149.202 16.8449C150.002 23.344 150.262 29.7597 146.441 35.3819C146.035 35.8823 145.63 36.3828 145.213 36.8984C144.605 37.6739 144.605 37.6739 143.985 38.465C140.03 42.9496 135.326 45.2162 129.439 46.0258C122.617 46.3232 117.634 44.2255 112.301 40.0568C107.43 35.4533 105.132 29.84 104.871 23.1618C105.209 16.2342 107.911 11.2355 112.553 6.19776C120.9 -1.29555 132.124 -0.68619 141.23 5.01335Z" fill="#B0488C"/>
<path d="M137.153 114.785C142.231 117.659 145.73 121.077 147.606 126.738C148.169 132.475 147.906 137.259 144.415 141.979C140.334 146.549 135.697 148.848 129.654 149.499C122.777 148.758 118.17 145.863 113.797 140.424C111.519 136.074 111.898 130.681 112.5 125.936C113.832 122.594 115.298 120.418 118.036 118.115C118.569 117.656 119.103 117.197 119.653 116.724C124.786 112.88 131.167 112.506 137.153 114.785Z" fill="#B0488C"/>
<path d="M128.457 59.3583C133.723 59.3583 138.989 59.3583 144.415 59.3583C144.415 70.7406 144.415 82.123 144.415 93.8503C139.149 93.8503 133.883 93.8503 128.457 93.8503C128.457 82.4679 128.457 71.0855 128.457 59.3583Z" fill="#B0488C"/>
<path d="M11.0767 68.586C14.263 69.3366 15.9335 71.1034 17.8524 73.6464C18.6393 76.4153 18.3246 78.2534 17.5532 81.016C15.2584 83.4842 13.5163 84.7804 10.3225 85.8288C7.45387 85.8288 6.25731 85.1478 3.98939 83.4224C3.52861 83.108 3.06784 82.7936 2.59311 82.4703C0.899002 80.0003 0.464123 77.5177 0.797896 74.5989C2.96801 69.8998 5.999 68.1649 11.0767 68.586Z" fill="#B0488C"/>
</g>
<defs>
<clipPath id="clip0_2_400">
<rect width="150" height="150" fill="white"/>
</clipPath>
</defs>
</svg>